<svg width="473.801" height="73.201" viewBox="0 0 473.801 73.201" xmlns="http://www.w3.org/2000/svg"><g id="svgGroup" stroke-linecap="round" fill-rule="evenodd" font-size="9pt" stroke="#a6a6a6" stroke-width="0.25mm" fill="#a6a6a6" style="stroke:#a6a6a6;stroke-width:0.25mm;fill:#a6a6a6"><path d="M 59.001 19.8 L 56.801 19.8 A 23.233 23.233 0 0 0 52.896 11.548 A 22.03 22.03 0 0 0 48.851 7.45 A 20.028 20.028 0 0 0 42.261 4.122 Q 37.906 2.8 32.201 2.8 A 32.544 32.544 0 0 0 23.174 4.011 A 27.79 27.79 0 0 0 16.601 6.85 A 27.034 27.034 0 0 0 6.771 17.09 A 32.973 32.973 0 0 0 6.001 18.55 Q 2.201 26.2 2.201 37 Q 2.201 47.7 6.001 55.35 A 29.201 29.201 0 0 0 11.746 63.355 A 26.618 26.618 0 0 0 16.601 67.1 A 28.664 28.664 0 0 0 28.971 71.056 A 35.533 35.533 0 0 0 32.201 71.2 A 36.763 36.763 0 0 0 38.899 70.627 Q 44.798 69.533 48.801 66.35 Q 54.901 61.5 56.801 53.9 L 59.001 53.9 A 28.244 28.244 0 0 1 56.013 61.385 A 22.876 22.876 0 0 1 50.001 68.15 A 23.632 23.632 0 0 1 41.781 72.053 Q 38.429 72.949 34.467 73.145 A 45.876 45.876 0 0 1 32.201 73.2 A 34.948 34.948 0 0 1 22.869 71.999 A 29.003 29.003 0 0 1 15.201 68.65 Q 7.901 64.1 3.951 55.95 Q 0.001 47.8 0.001 37 A 50.759 50.759 0 0 1 0.84 27.546 A 37.672 37.672 0 0 1 3.951 18 Q 7.901 9.9 15.201 5.35 A 30.052 30.052 0 0 1 27.786 1.05 A 38.072 38.072 0 0 1 32.201 0.8 A 40.064 40.064 0 0 1 39.536 1.432 Q 43.738 2.215 47.085 3.969 A 21.713 21.713 0 0 1 50.001 5.8 A 23.564 23.564 0 0 1 58.128 16.955 A 30.603 30.603 0 0 1 59.001 19.8 Z M 72.801 72 L 70.801 72 L 70.801 0 L 72.801 0 L 72.801 33.7 A 24.466 24.466 0 0 1 75.535 28.547 A 18.602 18.602 0 0 1 80.401 23.75 A 19.459 19.459 0 0 1 87.435 20.761 A 18.559 18.559 0 0 1 91.101 20.4 A 22.283 22.283 0 0 1 96.247 20.972 A 18.097 18.097 0 0 1 100.501 22.55 Q 104.601 24.7 107.001 29.15 Q 108.937 32.74 109.311 38.053 A 37.687 37.687 0 0 1 109.401 40.7 L 109.401 72 L 107.401 72 L 107.401 41.2 Q 107.401 35.196 105.703 31.13 A 13.939 13.939 0 0 0 103.151 27.05 Q 98.901 22.4 91.101 22.4 A 17.077 17.077 0 0 0 84.645 23.605 A 16.176 16.176 0 0 0 81.801 25.1 A 17.979 17.979 0 0 0 76.601 30.409 A 22.789 22.789 0 0 0 75.251 32.8 A 22.89 22.89 0 0 0 73.375 38.515 Q 72.873 41.093 72.81 44.048 A 40.062 40.062 0 0 0 72.801 44.9 L 72.801 72 Z M 394.901 72 L 392.601 72 L 364.801 2 L 367.101 2 L 393.701 69.4 L 420.601 2 L 422.901 2 L 394.901 72 Z M 353.301 38 L 353.301 0 L 355.301 0 L 355.301 72 L 353.701 72 L 352.901 56.3 Q 351.501 61.2 348.401 65 Q 345.301 68.8 340.951 71 A 20.652 20.652 0 0 1 332.772 73.156 A 24.62 24.62 0 0 1 331.301 73.2 A 25.591 25.591 0 0 1 324.881 72.428 A 20.401 20.401 0 0 1 318.851 69.8 A 22.055 22.055 0 0 1 310.803 60.456 A 29.344 29.344 0 0 1 310.801 60.45 A 29.262 29.262 0 0 1 308.302 51.71 A 37.251 37.251 0 0 1 308.001 46.9 Q 308.001 39.2 310.801 33.25 Q 313.601 27.3 318.901 23.85 Q 324.201 20.4 331.501 20.4 A 22.954 22.954 0 0 1 338.893 21.551 A 19.87 19.87 0 0 1 345.301 25.15 A 23.943 23.943 0 0 1 352.024 34.359 A 30.903 30.903 0 0 1 353.301 38 Z M 213.101 35.2 L 210.901 35.2 Q 209.601 29.3 204.751 25.85 A 18.39 18.39 0 0 0 197.066 22.737 A 24.783 24.783 0 0 0 192.901 22.4 Q 187.601 22.4 182.801 25.1 A 19.744 19.744 0 0 0 176.476 30.817 A 24.891 24.891 0 0 0 174.951 33.2 Q 172.331 37.838 171.961 44.615 A 41.961 41.961 0 0 0 171.901 46.9 A 39.231 39.231 0 0 0 172.183 51.743 Q 172.493 54.228 173.142 56.337 A 20.797 20.797 0 0 0 173.751 58.05 Q 175.601 62.6 178.651 65.5 A 20.338 20.338 0 0 0 184.148 69.274 A 19.114 19.114 0 0 0 185.401 69.8 Q 189.101 71.2 192.901 71.2 A 23.499 23.499 0 0 0 198.201 70.621 A 20.117 20.117 0 0 0 201.151 69.7 Q 204.901 68.2 207.501 65.35 Q 210.101 62.5 210.901 58.4 L 213.101 58.4 Q 211.901 64.7 206.701 68.95 Q 201.501 73.2 192.801 73.2 A 23.941 23.941 0 0 1 185.401 72.087 A 21.276 21.276 0 0 1 180.851 70 A 21.386 21.386 0 0 1 173.274 62.03 A 26.025 26.025 0 0 1 172.651 60.85 A 27.876 27.876 0 0 1 170.133 52.763 A 36.942 36.942 0 0 1 169.701 47 Q 169.701 38.773 172.746 32.856 A 23.493 23.493 0 0 1 172.801 32.75 A 24.183 24.183 0 0 1 177.206 26.688 A 21.441 21.441 0 0 1 181.151 23.6 Q 186.401 20.4 192.801 20.4 Q 200.901 20.4 206.351 24.6 Q 211.801 28.8 213.101 35.2 Z M 435.001 72 L 433.001 72 L 433.001 2 L 450.501 2 Q 456.248 2 460.398 3.228 A 19.428 19.428 0 0 1 463.651 4.5 A 17.659 17.659 0 0 1 467.812 7.368 A 14.637 14.637 0 0 1 470.851 11.4 A 20.497 20.497 0 0 1 472.923 18.345 A 25.578 25.578 0 0 1 473.101 21.4 A 27.726 27.726 0 0 1 472.67 26.412 A 19.873 19.873 0 0 1 470.851 31.9 A 14.72 14.72 0 0 1 465.307 37.794 A 18.924 18.924 0 0 1 463.651 38.7 A 21.004 21.004 0 0 1 459.288 40.209 Q 455.498 41.1 450.501 41.1 L 435.001 41.1 L 435.001 72 Z M 238.73 72.119 A 25.088 25.088 0 0 0 246.201 73.2 A 28.829 28.829 0 0 0 248.322 73.123 A 23.632 23.632 0 0 0 258.551 70.05 A 21.689 21.689 0 0 0 262.213 67.392 A 23.599 23.599 0 0 0 267.201 60.95 A 25.979 25.979 0 0 0 269.788 53.544 A 35.39 35.39 0 0 0 270.401 46.8 A 43.915 43.915 0 0 0 270.398 46.34 Q 270.314 38.336 267.301 32.6 A 26.298 26.298 0 0 0 266.904 31.873 A 21.914 21.914 0 0 0 258.801 23.55 A 22.381 22.381 0 0 0 253.789 21.397 A 25.839 25.839 0 0 0 246.501 20.4 A 28.445 28.445 0 0 0 245.029 20.438 A 23.661 23.661 0 0 0 234.251 23.55 Q 228.801 26.7 225.651 32.65 Q 222.501 38.6 222.501 46.9 A 36.253 36.253 0 0 0 223.012 53.126 A 26.763 26.763 0 0 0 225.601 60.95 A 26.449 26.449 0 0 0 226.306 62.218 A 21.779 21.779 0 0 0 234.051 70.05 A 22.088 22.088 0 0 0 238.73 72.119 Z M 284.101 72 L 282.101 72 L 282.101 21.6 L 283.701 21.6 L 284.201 32.2 A 24.434 24.434 0 0 1 286.045 28.695 Q 287.348 26.662 288.951 25.2 Q 291.801 22.6 295.551 21.5 A 26.308 26.308 0 0 1 299.831 20.642 A 35.953 35.953 0 0 1 304.101 20.4 L 304.101 22.2 L 303.201 22.2 A 23.008 23.008 0 0 0 300.357 22.387 Q 298.948 22.563 297.407 22.904 A 37.889 37.889 0 0 0 297.201 22.95 A 16.98 16.98 0 0 0 291.893 25.182 A 20.004 20.004 0 0 0 290.901 25.85 A 13.413 13.413 0 0 0 287.874 28.902 Q 286.864 30.29 286.053 32.037 A 22.603 22.603 0 0 0 286.001 32.15 Q 284.607 35.194 284.236 39.663 A 41.56 41.56 0 0 0 284.101 43.1 L 284.101 72 Z M 141.001 72 L 139.001 72 L 139.001 0 L 141.001 0 L 141.001 72 Z M 157.901 72 L 155.901 72 L 155.901 0 L 157.901 0 L 157.901 72 Z M 246.201 71.2 Q 251.901 71.2 256.901 68.5 A 20.144 20.144 0 0 0 263.804 62.297 A 25.008 25.008 0 0 0 265.051 60.35 Q 267.966 55.306 268.183 47.992 A 40.167 40.167 0 0 0 268.201 46.8 Q 268.201 38.7 265.101 33.3 A 22.598 22.598 0 0 0 260.963 28.003 A 19.723 19.723 0 0 0 257.051 25.15 Q 252.101 22.4 246.501 22.4 Q 240.901 22.4 235.901 25.15 Q 230.901 27.9 227.801 33.3 Q 225.003 38.173 224.73 45.244 A 40.318 40.318 0 0 0 224.701 46.8 A 35.647 35.647 0 0 0 225.166 52.724 Q 225.728 56.054 226.967 58.795 A 20.33 20.33 0 0 0 227.751 60.35 A 22.342 22.342 0 0 0 231.513 65.365 A 18.902 18.902 0 0 0 235.701 68.5 Q 240.601 71.2 246.201 71.2 Z M 331.301 71.2 A 20.957 20.957 0 0 0 337.642 70.27 A 18.177 18.177 0 0 0 342.351 68 A 21.491 21.491 0 0 0 349.254 60.312 A 25.796 25.796 0 0 0 349.801 59.25 Q 352.501 53.7 352.501 46.8 Q 352.501 39.7 349.801 34.2 Q 347.101 28.7 342.401 25.55 A 18.666 18.666 0 0 0 333.238 22.464 A 23.219 23.219 0 0 0 331.501 22.4 A 22.175 22.175 0 0 0 324.969 23.333 A 19.305 19.305 0 0 0 320.501 25.35 Q 315.701 28.3 312.951 33.8 A 25.36 25.36 0 0 0 310.69 40.828 A 34.774 34.774 0 0 0 310.201 46.8 A 33.586 33.586 0 0 0 310.795 53.269 A 25.116 25.116 0 0 0 312.951 59.7 A 22.201 22.201 0 0 0 316.799 65.224 A 19.547 19.547 0 0 0 320.451 68.2 Q 325.201 71.2 331.301 71.2 Z M 435.001 3.8 L 435.001 39.3 L 450.601 39.3 A 35.631 35.631 0 0 0 456.433 38.853 Q 462.035 37.922 465.651 35.05 Q 470.342 31.323 470.92 23.635 A 29.864 29.864 0 0 0 471.001 21.4 A 22.472 22.472 0 0 0 470.425 16.152 Q 469.246 11.241 465.651 8.25 A 17.723 17.723 0 0 0 459.447 4.983 Q 455.602 3.8 450.601 3.8 L 435.001 3.8 Z M 124.601 72 L 122.601 72 L 122.601 21.6 L 124.601 21.6 L 124.601 72 Z M 473.801 72 L 471.601 72 L 454.901 39.8 L 457.101 39.8 L 473.801 72 Z M 122.685 6.516 A 1.646 1.646 0 0 0 123.601 6.8 A 1.804 1.804 0 0 0 124.306 6.664 A 1.837 1.837 0 0 0 124.951 6.2 Q 125.501 5.6 125.501 4.9 A 2.308 2.308 0 0 0 125.501 4.875 A 1.832 1.832 0 0 0 124.951 3.55 A 1.862 1.862 0 0 0 124.396 3.162 A 1.917 1.917 0 0 0 123.601 3 Q 122.901 3 122.301 3.55 A 2.191 2.191 0 0 0 122.241 3.607 A 1.751 1.751 0 0 0 121.701 4.9 Q 121.701 5.6 122.301 6.2 A 2.415 2.415 0 0 0 122.685 6.516 Z" vector-effect="non-scaling-stroke"/></g></svg>